<svg xmlns="http://www.w3.org/2000/svg" width="178" height="28" viewBox="0 0 178 28" fill="none"><path d="M0 10.0792H11.364L18.275 10.0858V3.23438L0 10.0792Z" fill="#FF9D28"></path><path d="M18.2754 3.23082V27.4058L26.9041 0L18.2754 3.23082Z" fill="#69C3EA"></path><path d="M18.2742 10.0847L11.3633 10.0781L18.2742 27.4083V10.0847Z" fill="#004F80"></path><path d="M0 10.0781L13.1347 14.5246L11.364 10.0781H0Z" fill="#E14748"></path><path d="M47.3585 18.5894C47.2594 18.6885 47.0942 18.814 46.8563 18.966C46.6251 19.1179 46.3212 19.2633 45.9446 19.4152C45.568 19.5672 45.1121 19.6927 44.5703 19.8051C44.0286 19.9108 43.4075 19.9702 42.7072 19.9702C41.3527 19.9702 40.1899 19.7522 39.2054 19.3227C38.221 18.8867 37.4083 18.2854 36.7675 17.5058C36.1266 16.7328 35.6509 15.8144 35.3536 14.7507C35.0563 13.6936 34.9043 12.5241 34.9043 11.2556C34.9043 9.98705 35.0695 8.81762 35.3932 7.74068C35.717 6.66373 36.2059 5.73215 36.86 4.95252C37.5141 4.16629 38.3267 3.55184 39.2979 3.11578C40.2758 2.67311 41.4188 2.45508 42.7402 2.45508C43.3943 2.45508 43.9823 2.51454 44.5043 2.63347C45.0328 2.75239 45.4887 2.89114 45.8785 3.04971C46.2683 3.20828 46.5987 3.37345 46.8563 3.55184C47.114 3.73023 47.3122 3.87558 47.4444 3.9879C47.5963 4.12004 47.7219 4.27861 47.8342 4.4636C47.9399 4.6486 47.9994 4.84681 47.9994 5.06484C47.9994 5.4018 47.8738 5.73215 47.6228 6.0691C47.3717 6.40606 47.0942 6.70998 46.7969 6.99408C46.5987 6.79587 46.374 6.59106 46.123 6.37963C45.8719 6.16821 45.5944 5.98982 45.2839 5.83125C44.9734 5.67268 44.6232 5.54055 44.2334 5.42823C43.8436 5.32251 43.4009 5.26305 42.9186 5.26305C42.0663 5.26305 41.3527 5.43483 40.7779 5.7784C40.2031 6.12196 39.7406 6.56463 39.3904 7.11962C39.0403 7.668 38.7892 8.30227 38.6373 9.00922C38.4853 9.71617 38.4126 10.4429 38.4126 11.1763C38.4126 11.9625 38.4853 12.7091 38.6373 13.4293C38.7892 14.1495 39.0469 14.7837 39.4103 15.3321C39.7803 15.8805 40.256 16.3232 40.8506 16.6601C41.4452 16.9971 42.1786 17.1623 43.0639 17.1623C43.533 17.1623 43.9625 17.1028 44.3523 16.9839C44.7421 16.8649 45.0923 16.7262 45.3896 16.561C45.6869 16.3958 45.9512 16.2175 46.1758 16.0325C46.4005 15.8475 46.5921 15.6889 46.7374 15.5568C46.8365 15.6757 46.9555 15.8144 47.0876 15.9796C47.2197 16.1448 47.3453 16.3232 47.4642 16.5082C47.5831 16.6932 47.6822 16.8782 47.7615 17.0565C47.8474 17.2415 47.887 17.4067 47.887 17.5587C47.887 17.7767 47.8474 17.9617 47.7615 18.1071C47.6756 18.2392 47.5435 18.4044 47.3585 18.5894V18.5894Z" fill="#152234"></path><path d="M60.2614 16.6685C60.2614 17.9965 60.453 18.9611 60.8428 19.5623C60.5389 19.6813 60.2614 19.7605 59.9971 19.8134C59.7394 19.8663 59.4619 19.8861 59.1778 19.8861C58.5766 19.8861 58.1141 19.7671 57.8036 19.5359C57.4931 19.298 57.2949 18.9677 57.209 18.5316C56.839 18.9214 56.3501 19.2452 55.7488 19.5161C55.1476 19.787 54.4076 19.9191 53.5355 19.9191C53.0796 19.9191 52.6303 19.853 52.1744 19.7341C51.7185 19.6086 51.3089 19.4038 50.9389 19.1197C50.5689 18.8356 50.265 18.4524 50.0338 17.9766C49.7959 17.5009 49.6836 16.9195 49.6836 16.2324C49.6836 15.3801 49.8884 14.6864 50.298 14.1512C50.7077 13.616 51.223 13.1932 51.8441 12.8827C52.4651 12.5721 53.1391 12.3607 53.8592 12.2418C54.5794 12.1229 55.2467 12.0502 55.8479 12.0171C56.0527 11.9973 56.2443 11.9907 56.4425 11.9907H56.9843V11.5348C56.9843 10.8873 56.8125 10.4315 56.469 10.1606C56.1254 9.88969 55.5638 9.75094 54.7974 9.75094C54.0772 9.75094 53.4364 9.86987 52.8682 10.1011C52.3066 10.339 51.7582 10.6032 51.2164 10.9072C50.9786 10.6231 50.7936 10.3059 50.6482 9.96236C50.5029 9.6188 50.4368 9.36113 50.4368 9.19595C50.4368 8.9581 50.5689 8.73346 50.8266 8.51543C51.0843 8.2974 51.4411 8.09919 51.8969 7.9208C52.3528 7.74241 52.8682 7.60367 53.4562 7.49135C54.0442 7.37903 54.6653 7.32617 55.3194 7.32617C56.2245 7.32617 56.9909 7.41867 57.6252 7.60367C58.2529 7.78866 58.7682 8.07276 59.1646 8.46258C59.5611 8.84578 59.8385 9.32809 60.0103 9.90951C60.1755 10.4909 60.2614 11.1648 60.2614 11.9379V16.6685ZM57.0372 13.7482C56.9183 13.7482 56.7993 13.7482 56.687 13.7482C56.5681 13.7482 56.4492 13.7548 56.3368 13.7746C55.914 13.8076 55.5044 13.8605 55.0881 13.9266C54.6785 13.9926 54.3085 14.1116 53.9914 14.2767C53.6742 14.4419 53.4099 14.6599 53.2117 14.9308C53.0069 15.2017 52.9078 15.5453 52.9078 15.9615C52.9078 16.4306 53.0399 16.827 53.3108 17.1574C53.5817 17.4877 54.031 17.6463 54.6719 17.6463C54.989 17.6463 55.2929 17.6067 55.577 17.5208C55.8611 17.4349 56.1122 17.3292 56.3302 17.1904C56.5483 17.0583 56.72 16.9063 56.8456 16.7477C56.9711 16.5892 57.0372 16.4438 57.0372 16.3051V13.7482Z" fill="#152234"></path><path d="M66.5325 8.78632C66.7968 8.46918 67.2196 8.14544 67.7878 7.81509C68.356 7.48474 69.0762 7.32617 69.9483 7.32617C70.5693 7.32617 71.1574 7.43188 71.719 7.64331C72.2806 7.85473 72.7761 8.19169 73.2121 8.66079C73.6482 9.12988 73.9918 9.75094 74.256 10.524C74.5137 11.297 74.6459 12.2418 74.6459 13.3716C74.6459 14.6798 74.4939 15.7567 74.1966 16.609C73.8927 17.4547 73.5095 18.1286 73.0271 18.6241C72.5514 19.1197 72.0163 19.4698 71.4349 19.668C70.8468 19.8662 70.2654 19.972 69.6774 19.972C69.1951 19.972 68.7722 19.9191 68.4089 19.8068C68.0521 19.6945 67.7416 19.5755 67.4905 19.4434C67.2394 19.3113 67.0478 19.1725 66.9157 19.0404C66.7835 18.9082 66.6976 18.8157 66.6646 18.7629V24.9536H63.2422V7.67634C63.3281 7.66313 63.4272 7.64331 63.5461 7.62349C63.6452 7.61027 63.7641 7.59706 63.9029 7.58385C64.035 7.57724 64.2002 7.57063 64.3852 7.57063C64.9402 7.57063 65.4159 7.66313 65.8057 7.84813C66.1823 8.03973 66.4268 8.35026 66.5325 8.78632V8.78632ZM71.0649 13.4443C71.0649 12.9421 71.0252 12.473 70.9393 12.037C70.8534 11.6009 70.7213 11.2243 70.5231 10.9006C70.3315 10.5834 70.0738 10.3324 69.7435 10.1606C69.4197 9.98218 69.0233 9.89629 68.5542 9.89629C67.8539 9.89629 67.365 10.0284 67.0875 10.2993C66.81 10.5702 66.6712 10.8609 66.6712 11.1781V16.5165C66.8034 16.6486 67.0412 16.8072 67.3848 16.9922C67.7283 17.1772 68.1248 17.2697 68.574 17.2697C69.4263 17.2697 70.054 16.9327 70.4504 16.2654C70.8667 15.5915 71.0649 14.6533 71.0649 13.4443V13.4443Z" fill="#152234"></path><path d="M77.2814 17.7789C77.1625 17.442 77.0898 17.0918 77.0568 16.7218C77.0237 16.3518 77.0039 15.9818 77.0039 15.6118V3.92407C77.1228 3.91086 77.2484 3.89104 77.3805 3.87122C77.4994 3.858 77.625 3.84479 77.7571 3.83157C77.8892 3.82497 78.028 3.81836 78.1601 3.81836C78.431 3.81836 78.6953 3.84479 78.9662 3.89104C79.2371 3.94389 79.4749 4.043 79.6996 4.19496C79.9176 4.34692 80.096 4.55174 80.2281 4.80941C80.3603 5.06708 80.4263 5.41065 80.4263 5.82689V7.61738H83.9545V10.1611H80.4263V15.5326C80.4263 16.702 80.902 17.29 81.86 17.29C82.0979 17.29 82.3159 17.2504 82.5274 17.1777C82.7388 17.105 82.9238 17.0191 83.0956 16.9266C83.2607 16.8341 83.4127 16.735 83.5382 16.6359C83.6638 16.5368 83.7496 16.4575 83.8025 16.4113C84.0536 16.7813 84.2452 17.0984 84.3839 17.3693C84.5161 17.6402 84.5821 17.8913 84.5821 18.1291C84.5821 18.3471 84.4962 18.5652 84.3179 18.7766C84.1395 18.988 83.895 19.1862 83.5779 19.358C83.2607 19.5364 82.8709 19.6818 82.4216 19.7875C81.9658 19.8998 81.4702 19.9526 80.9351 19.9526C79.8912 19.9526 79.0851 19.7478 78.5037 19.3514C77.9223 18.9616 77.5193 18.433 77.2814 17.7789V17.7789Z" fill="#152234"></path><path d="M92.6296 17.4469C93.0525 17.4469 93.4225 17.4006 93.7396 17.3081C94.0567 17.2156 94.3475 17.1033 94.5985 16.9712C94.8496 16.839 95.0676 16.6871 95.2526 16.5285C95.4376 16.3699 95.6094 16.2246 95.7613 16.0858C95.9662 16.3369 96.171 16.6607 96.3956 17.0571C96.6137 17.4535 96.726 17.7772 96.726 18.0283C96.726 18.3983 96.5146 18.7352 96.0983 19.0326C95.7481 19.3034 95.246 19.5347 94.5985 19.7263C93.951 19.9179 93.1912 20.017 92.3191 20.017C91.5329 20.017 90.7533 19.9179 89.9868 19.7131C89.2204 19.5149 88.5399 19.1581 87.9453 18.656C87.3507 18.1538 86.8683 17.4799 86.4983 16.6276C86.1284 15.7819 85.9434 14.7116 85.9434 13.4166C85.9434 12.3595 86.1085 11.4477 86.4323 10.6813C86.7626 9.91491 87.1987 9.28064 87.7405 8.77851C88.2888 8.27637 88.9033 7.90638 89.5904 7.66853C90.2775 7.43068 90.9845 7.31836 91.7047 7.31836C92.6428 7.31836 93.4423 7.46371 94.0964 7.76103C94.7505 8.05174 95.2857 8.44816 95.6953 8.94368C96.1049 9.43921 96.4022 10.0074 96.5872 10.6417C96.7722 11.2826 96.8647 11.9499 96.8647 12.6568V13.007C96.8647 13.1391 96.8581 13.2845 96.8515 13.4364C96.8449 13.5884 96.8317 13.7338 96.8251 13.8791C96.8185 14.0245 96.8053 14.1368 96.7854 14.2161H89.3592C89.4252 15.141 89.7159 15.9075 90.2181 16.5219C90.7334 17.143 91.5329 17.4469 92.6296 17.4469ZM93.7793 12.3331C93.7793 11.527 93.6207 10.8729 93.3102 10.3708C92.9996 9.86866 92.438 9.61759 91.6254 9.61759C90.9316 9.61759 90.3767 9.85545 89.967 10.3378C89.5508 10.8135 89.346 11.4808 89.346 12.3397H93.7793V12.3331Z" fill="#152234"></path><path d="M102.837 8.85118C102.936 8.69922 103.075 8.53405 103.24 8.34905C103.405 8.16406 103.616 7.99888 103.854 7.84692C104.099 7.69496 104.363 7.56943 104.66 7.47032C104.951 7.37122 105.268 7.31836 105.605 7.31836C105.803 7.31836 106.021 7.33818 106.246 7.37122C106.471 7.40425 106.682 7.47032 106.874 7.55621C107.065 7.64871 107.224 7.77424 107.343 7.93281C107.462 8.09138 107.521 8.28959 107.521 8.52083C107.521 8.88422 107.429 9.30707 107.244 9.78277C107.059 10.2585 106.874 10.6615 106.689 10.9985C106.405 10.7606 106.121 10.5822 105.83 10.4567C105.546 10.3311 105.209 10.2651 104.826 10.2651C104.304 10.2651 103.868 10.417 103.517 10.721C103.167 11.0249 102.989 11.3883 102.989 11.8045V19.9575H99.5664V7.66853C99.6523 7.65532 99.7514 7.6355 99.8703 7.61567C99.9694 7.60246 100.088 7.58925 100.22 7.57603C100.353 7.56943 100.511 7.56282 100.696 7.56282C101.231 7.56282 101.7 7.66853 102.097 7.87335C102.487 8.09798 102.731 8.41512 102.837 8.85118V8.85118Z" fill="#152234"></path><path d="M112.569 8.85118C112.668 8.69922 112.807 8.53405 112.972 8.34905C113.137 8.16406 113.349 7.99888 113.587 7.84692C113.831 7.69496 114.096 7.56943 114.393 7.47032C114.684 7.37122 115.001 7.31836 115.338 7.31836C115.536 7.31836 115.754 7.33818 115.979 7.37122C116.203 7.40425 116.415 7.47032 116.606 7.55621C116.798 7.64871 116.956 7.77424 117.075 7.93281C117.194 8.09138 117.254 8.28959 117.254 8.52083C117.254 8.88422 117.161 9.30707 116.976 9.78277C116.791 10.2585 116.606 10.6615 116.421 10.9985C116.137 10.7606 115.853 10.5822 115.562 10.4567C115.278 10.3311 114.941 10.2651 114.558 10.2651C114.036 10.2651 113.6 10.417 113.25 10.721C112.9 11.0249 112.721 11.3883 112.721 11.8045V19.9575H109.299V7.66853C109.385 7.65532 109.484 7.6355 109.603 7.61567C109.702 7.60246 109.821 7.58925 109.953 7.57603C110.085 7.56943 110.244 7.56282 110.429 7.56282C110.964 7.56282 111.433 7.66853 111.829 7.87335C112.226 8.09798 112.47 8.41512 112.569 8.85118V8.85118Z" fill="#152234"></path><path d="M128.914 16.6685C128.914 17.9965 129.105 18.9611 129.495 19.5623C129.191 19.6813 128.914 19.7605 128.649 19.8134C128.392 19.8663 128.114 19.8861 127.83 19.8861C127.222 19.8861 126.766 19.7671 126.456 19.5359C126.145 19.298 125.947 18.9677 125.861 18.5316C125.491 18.9214 125.002 19.2452 124.401 19.5161C123.8 19.787 123.06 19.9191 122.188 19.9191C121.732 19.9191 121.283 19.853 120.827 19.7341C120.371 19.6086 119.961 19.4038 119.591 19.1197C119.221 18.8356 118.917 18.4524 118.686 17.9766C118.448 17.5009 118.336 16.9195 118.336 16.2324C118.336 15.3801 118.541 14.6864 118.95 14.1512C119.36 13.616 119.875 13.1932 120.496 12.8827C121.117 12.5721 121.791 12.3607 122.512 12.2418C123.232 12.1229 123.899 12.0502 124.5 12.0171C124.705 11.9973 124.897 11.9907 125.095 11.9907H125.637V11.5348C125.637 10.8873 125.465 10.4315 125.121 10.1606C124.778 9.88969 124.216 9.75094 123.45 9.75094C122.73 9.75094 122.089 9.86987 121.521 10.1011C120.959 10.339 120.411 10.6032 119.869 10.9072C119.631 10.6231 119.446 10.3059 119.301 9.96236C119.155 9.6188 119.089 9.36113 119.089 9.19595C119.089 8.9581 119.221 8.73346 119.479 8.51543C119.737 8.2974 120.093 8.09919 120.549 7.9208C121.005 7.74241 121.521 7.60367 122.109 7.49135C122.697 7.37903 123.318 7.32617 123.972 7.32617C124.877 7.32617 125.643 7.41867 126.278 7.60367C126.905 7.78866 127.421 8.07276 127.81 8.46258C128.207 8.84578 128.484 9.32809 128.656 9.90951C128.821 10.4909 128.907 11.1648 128.907 11.9379V16.6685H128.914ZM125.69 13.7482C125.571 13.7482 125.452 13.7482 125.339 13.7482C125.22 13.7482 125.101 13.7548 124.989 13.7746C124.566 13.8076 124.157 13.8605 123.74 13.9266C123.331 13.9926 122.961 14.1116 122.644 14.2767C122.327 14.4419 122.062 14.6599 121.864 14.9308C121.666 15.2017 121.56 15.5453 121.56 15.9615C121.56 16.4306 121.692 16.827 121.963 17.1574C122.234 17.4877 122.683 17.6463 123.324 17.6463C123.641 17.6463 123.945 17.6067 124.229 17.5208C124.513 17.4349 124.765 17.3292 124.983 17.1904C125.201 17.0583 125.372 16.9063 125.498 16.7477C125.623 16.5892 125.69 16.4438 125.69 16.3051V13.7482Z" fill="#152234"></path><path fill-rule="evenodd" clip-rule="evenodd" d="M137.996 1.7041C138.272 1.7041 138.496 1.92796 138.496 2.2041L138.496 25.2041C138.496 25.4802 138.272 25.7041 137.996 25.7041C137.72 25.7041 137.496 25.4802 137.496 25.2041L137.496 2.2041C137.496 1.92796 137.72 1.7041 137.996 1.7041Z" fill="#C6CFDC"></path><path d="M154.22 5.7041H156.873V15.519H159.502V17.931H156.873V21.3698H154.15V17.931H146.496V15.8056L154.22 5.7041ZM154.29 9.88321L149.753 15.8056H154.29V9.88321Z" fill="#152234"></path><path d="M160.379 19.722C160.379 19.1807 160.558 18.727 160.914 18.3608C161.271 17.9946 161.729 17.8116 162.287 17.8116C162.845 17.8116 163.311 17.9946 163.683 18.3608C164.055 18.727 164.241 19.1807 164.241 19.722C164.241 20.2553 164.055 20.7011 163.683 21.0593C163.311 21.4096 162.845 21.5847 162.287 21.5847C161.729 21.5847 161.271 21.4056 160.914 21.0474C160.558 20.6892 160.379 20.2474 160.379 19.722Z" fill="#152234"></path><path d="M171.729 21.7041C170.644 21.7041 169.686 21.5131 168.856 21.131C168.026 20.7409 167.371 20.1757 166.89 19.4354C166.417 18.6951 166.169 17.7956 166.146 16.7369H168.937C168.937 17.533 169.205 18.13 169.74 18.528C170.275 18.926 170.938 19.125 171.729 19.125C172.575 19.125 173.265 18.8464 173.8 18.2892C174.343 17.724 174.614 17.0315 174.614 16.2116C174.614 14.6195 173.575 13.8235 171.497 13.8235H166.89L167.588 5.87127H176.638V8.45037H169.798L170.333 7.63843L169.891 12.2474L169.659 11.9847C170.031 11.8971 170.473 11.8335 170.985 11.7937C171.497 11.7459 171.939 11.722 172.311 11.722C173.87 11.722 175.111 12.1121 176.033 12.8922C176.964 13.6643 177.429 14.7708 177.429 16.2116C177.429 17.2384 177.193 18.1698 176.72 19.0056C176.247 19.8335 175.584 20.4902 174.731 20.9757C173.878 21.4613 172.877 21.7041 171.729 21.7041Z" fill="#152234"></path></svg>